<svg width="58" height="37" viewBox="0 0 58 37" fill="none" xmlns="http://www.w3.org/2000/svg">
<g clip-path="url(#clip0_144_8599)">
<path d="M34.4447 2.77937C32.2618 1.39156 29.8135 0.470298 27.2549 0.0738948C24.6962 -0.322508 22.0828 -0.185427 19.5801 0.476466C17.0773 1.13836 14.7397 2.31065 12.7151 3.91916C10.6906 5.52768 9.02315 7.53739 7.81836 9.82113C9.84585 8.44894 12.1342 7.50559 14.5421 7.04937C17.8544 6.41514 21.2785 6.71188 24.4312 7.90638C27.5839 9.10088 30.3407 11.146 32.3932 13.8129C34.4869 16.487 35.7522 19.7114 36.0343 23.0913C36.0372 24.346 35.5419 25.5509 34.6565 26.443C33.7711 27.3352 32.5676 27.8423 31.3084 27.8536C30.3281 27.8533 29.3525 27.7201 28.4084 27.4576C27.6004 27.2409 26.8215 26.9283 26.0884 26.5266C26.0277 26.5 25.9596 26.4958 25.8962 26.5146C25.8327 26.5334 25.778 26.5741 25.7419 26.6294C25.7058 26.6847 25.6905 26.751 25.6989 26.8165C25.7073 26.8819 25.7387 26.9423 25.7876 26.9867C28.5106 29.1641 31.9788 30.1969 35.4543 29.8655C37.0062 29.6416 38.4613 28.9793 39.6472 27.957C40.8331 26.9347 41.7001 25.5953 42.1458 24.0973C43.3791 20.1938 43.2938 15.995 41.9028 12.1445C40.5118 8.29403 37.8919 5.00424 34.4447 2.77937Z" fill="#00B611"/>
<path d="M34.4447 2.77937C32.2618 1.39156 29.8135 0.470298 27.2549 0.0738948C24.6962 -0.322508 22.0828 -0.185427 19.5801 0.476466C17.0773 1.13836 14.7397 2.31065 12.7151 3.91916C10.6906 5.52768 9.02315 7.53739 7.81836 9.82113C9.84585 8.44894 12.1342 7.50559 14.5421 7.04937C17.8544 6.41514 21.2785 6.71188 24.4312 7.90638C27.5839 9.10088 30.3407 11.146 32.3932 13.8129C34.4869 16.487 35.7522 19.7114 36.0343 23.0913C36.0372 24.346 35.5419 25.5509 34.6565 26.443C33.7711 27.3352 32.5676 27.8423 31.3084 27.8536C30.3281 27.8533 29.3525 27.7201 28.4084 27.4576C27.6004 27.2409 26.8215 26.9283 26.0884 26.5266C26.0277 26.5 25.9596 26.4958 25.8962 26.5146C25.8327 26.5334 25.778 26.5741 25.7419 26.6294C25.7058 26.6847 25.6905 26.751 25.6989 26.8165C25.7073 26.8819 25.7387 26.9423 25.7876 26.9867C28.5106 29.1641 31.9788 30.1969 35.4543 29.8655C37.0062 29.6416 38.4613 28.9793 39.6472 27.957C40.8331 26.9347 41.7001 25.5953 42.1458 24.0973C43.3791 20.1938 43.2938 15.995 41.9028 12.1445C40.5118 8.29403 37.8919 5.00424 34.4447 2.77937Z" fill="url(#paint0_linear_144_8599)"/>
<path d="M51.3835 36.9715C50.3017 37.0621 49.227 36.7296 48.387 36.0444C47.547 35.3593 47.0077 34.3753 46.8831 33.3008C46.7909 32.7797 46.8036 32.2455 46.9205 31.7293C47.0374 31.2132 47.2561 30.7253 47.5639 30.2941C47.8718 29.8629 48.2626 29.497 48.7136 29.2177C49.1646 28.9383 49.6669 28.7511 50.1912 28.6669C51.2719 28.5734 52.3466 28.9035 53.1869 29.5869C54.0273 30.2703 54.5671 31.2533 54.6916 32.3269C54.7854 32.8488 54.7738 33.3841 54.6577 33.9015C54.5416 34.419 54.3231 34.9081 54.0152 35.3405C53.7072 35.7729 53.3159 36.1398 52.864 36.4198C52.4122 36.6999 51.9089 36.8874 51.3835 36.9715Z" fill="#00B611"/>
<path d="M47.002 1.38772V18.2858C47.0008 19.3685 47.2849 20.4325 47.8259 21.3715C48.3668 22.3105 49.1457 23.0916 50.0846 23.6367L53.9512 25.884C54.0149 25.9195 54.0868 25.9377 54.1598 25.9369C54.2327 25.9361 54.3042 25.9164 54.3671 25.8796C54.4301 25.8429 54.4823 25.7903 54.5186 25.7273C54.5549 25.6643 54.5741 25.5929 54.5742 25.5202V8.63281C54.5731 7.55055 54.2881 6.48736 53.7474 5.54873C53.2067 4.6101 52.429 3.82866 51.4916 3.28193L47.6249 1.04527C47.5633 1.00728 47.4927 0.986312 47.4203 0.984503C47.3479 0.982694 47.2763 1.00011 47.2129 1.03497C47.1495 1.06983 47.0965 1.12088 47.0595 1.18287C47.0224 1.24486 47.0025 1.31556 47.002 1.38772Z" fill="#00B611"/>
<path d="M13.0273 15.332C12.8705 12.5483 13.3663 9.76646 14.4756 7.20682C15.5848 4.64717 17.277 2.38003 19.4181 0.584961C15.3256 1.67504 11.7327 4.13181 9.24009 7.54457C6.74744 10.9573 5.50611 15.1192 5.72363 19.3344C6.44326 35.0874 25.6907 42.7178 37.0651 32.0267C37.1189 31.9878 37.1562 31.9303 37.1699 31.8655C37.1836 31.8007 37.1727 31.7331 37.1393 31.6759C37.1059 31.6186 37.0524 31.5757 36.9891 31.5555C36.9257 31.5353 36.8572 31.5393 36.7966 31.5665C25.7766 35.3657 13.4677 26.9755 13.0273 15.332Z" fill="#00B611"/>
<path d="M51.3835 36.9715C50.3017 37.0621 49.227 36.7296 48.387 36.0444C47.547 35.3593 47.0077 34.3753 46.8831 33.3008C46.7909 32.7797 46.8036 32.2455 46.9205 31.7293C47.0374 31.2132 47.2561 30.7253 47.5639 30.2941C47.8718 29.8629 48.2626 29.497 48.7136 29.2177C49.1646 28.9383 49.6669 28.7511 50.1912 28.6669C51.2719 28.5734 52.3466 28.9035 53.1869 29.5869C54.0273 30.2703 54.5671 31.2533 54.6916 32.3269C54.7854 32.8488 54.7738 33.3841 54.6577 33.9015C54.5416 34.419 54.3231 34.9081 54.0152 35.3405C53.7072 35.7729 53.3159 36.1398 52.864 36.4198C52.4122 36.6999 51.9089 36.8874 51.3835 36.9715Z" fill="url(#paint1_linear_144_8599)"/>
<path d="M47.002 1.38772V18.2858C47.0008 19.3685 47.2849 20.4325 47.8259 21.3715C48.3668 22.3105 49.1457 23.0916 50.0846 23.6367L53.9512 25.884C54.0149 25.9195 54.0868 25.9377 54.1598 25.9369C54.2327 25.9361 54.3042 25.9164 54.3671 25.8796C54.4301 25.8429 54.4823 25.7903 54.5186 25.7273C54.5549 25.6643 54.5741 25.5929 54.5742 25.5202V8.63281C54.5731 7.55055 54.2881 6.48736 53.7474 5.54873C53.2067 4.6101 52.429 3.82866 51.4916 3.28193L47.6249 1.04527C47.5633 1.00728 47.4927 0.986312 47.4203 0.984503C47.3479 0.982694 47.2763 1.00011 47.2129 1.03497C47.1495 1.06983 47.0965 1.12088 47.0595 1.18287C47.0224 1.24486 47.0025 1.31556 47.002 1.38772Z" fill="url(#paint2_linear_144_8599)"/>
<path d="M13.0273 15.332C12.8705 12.5483 13.3663 9.76646 14.4756 7.20682C15.5848 4.64717 17.277 2.38003 19.4181 0.584961C15.3256 1.67504 11.7327 4.13181 9.24009 7.54457C6.74744 10.9573 5.50611 15.1192 5.72363 19.3344C6.44326 35.0874 25.6907 42.7178 37.0651 32.0267C37.1189 31.9878 37.1562 31.9303 37.1699 31.8655C37.1836 31.8007 37.1727 31.7331 37.1393 31.6759C37.1059 31.6186 37.0524 31.5757 36.9891 31.5555C36.9257 31.5353 36.8572 31.5393 36.7966 31.5665C25.7766 35.3657 13.4677 26.9755 13.0273 15.332Z" fill="url(#paint3_linear_144_8599)"/>
</g>
<defs>
<linearGradient id="paint0_linear_144_8599" x1="11.728" y1="15.461" x2="31.2223" y2="14.8034" gradientUnits="userSpaceOnUse">
<stop stop-color="#007A33"/>
<stop offset="0.16" stop-color="#007A33" stop-opacity="0.77"/>
<stop offset="0.41" stop-color="#007A33" stop-opacity="0.44"/>
<stop offset="0.65" stop-color="#007A33" stop-opacity="0.2"/>
<stop offset="0.85" stop-color="#007A33" stop-opacity="0.05"/>
<stop offset="1" stop-color="#007A33" stop-opacity="0"/>
</linearGradient>
<linearGradient id="paint1_linear_144_8599" x1="50.7927" y1="40.8455" x2="50.7927" y2="25.0391" gradientUnits="userSpaceOnUse">
<stop stop-color="#007A33"/>
<stop offset="0.16" stop-color="#007A33" stop-opacity="0.77"/>
<stop offset="0.41" stop-color="#007A33" stop-opacity="0.44"/>
<stop offset="0.65" stop-color="#007A33" stop-opacity="0.2"/>
<stop offset="0.85" stop-color="#007A33" stop-opacity="0.05"/>
<stop offset="1" stop-color="#007A33" stop-opacity="0"/>
</linearGradient>
<linearGradient id="paint2_linear_144_8599" x1="50.7934" y1="40.8451" x2="50.7934" y2="25.0386" gradientUnits="userSpaceOnUse">
<stop stop-color="#007A33"/>
<stop offset="0.16" stop-color="#007A33" stop-opacity="0.77"/>
<stop offset="0.41" stop-color="#007A33" stop-opacity="0.44"/>
<stop offset="0.65" stop-color="#007A33" stop-opacity="0.2"/>
<stop offset="0.85" stop-color="#007A33" stop-opacity="0.05"/>
<stop offset="1" stop-color="#007A33" stop-opacity="0"/>
</linearGradient>
<linearGradient id="paint3_linear_144_8599" x1="30.4381" y1="39.8711" x2="18.4167" y2="21.1567" gradientUnits="userSpaceOnUse">
<stop stop-color="#007A33"/>
<stop offset="0.16" stop-color="#007A33" stop-opacity="0.77"/>
<stop offset="0.41" stop-color="#007A33" stop-opacity="0.44"/>
<stop offset="0.65" stop-color="#007A33" stop-opacity="0.2"/>
<stop offset="0.85" stop-color="#007A33" stop-opacity="0.05"/>
<stop offset="1" stop-color="#007A33" stop-opacity="0"/>
</linearGradient>
<clipPath id="clip0_144_8599">
<rect width="58" height="37" fill="white"/>
</clipPath>
</defs>
</svg>
