<svg width="30" height="30" viewBox="0 0 30 30" fill="none" xmlns="http://www.w3.org/2000/svg">
<path d="M2.24805 24.1346V21.3555C2.24805 20.7114 2.4143 20.1365 2.7468 19.6309C3.0793 19.1252 3.52336 18.7319 4.07898 18.4509C5.2669 17.8698 6.46138 17.4218 7.66242 17.1068C8.86367 16.792 10.1838 16.6346 11.6227 16.6346C13.0619 16.6346 14.382 16.792 15.583 17.1068C16.7843 17.4218 17.9789 17.8698 19.1668 18.4509C19.7224 18.7319 20.1665 19.1252 20.499 19.6309C20.8315 20.1365 20.9977 20.7114 20.9977 21.3555V24.1346H2.24805ZM23.4977 24.1346V21.2018C23.4977 20.3814 23.2969 19.5994 22.8952 18.8559C22.4934 18.1125 21.9234 17.4747 21.1852 16.9424C22.0234 17.0674 22.8191 17.2609 23.5724 17.5227C24.3256 17.7848 25.0443 18.0945 25.7287 18.4518C26.3745 18.7964 26.8733 19.2025 27.2249 19.6702C27.5766 20.1377 27.7524 20.6483 27.7524 21.2018V24.1346H23.4977ZM11.6227 14.6152C10.4196 14.6152 9.38971 14.1869 8.53305 13.3302C7.67638 12.4734 7.24805 11.4434 7.24805 10.2402C7.24805 9.03711 7.67638 8.00721 8.53305 7.15055C9.38971 6.29367 10.4196 5.86523 11.6227 5.86523C12.8259 5.86523 13.8559 6.29367 14.7127 7.15055C15.5694 8.00721 15.9977 9.03711 15.9977 10.2402C15.9977 11.4434 15.5694 12.4734 14.7127 13.3302C13.8559 14.1869 12.8259 14.6152 11.6227 14.6152ZM22.4159 10.2402C22.4159 11.4434 21.9875 12.4734 21.1309 13.3302C20.2742 14.1869 19.2443 14.6152 18.0412 14.6152C17.9001 14.6152 17.7207 14.5992 17.5027 14.5671C17.2846 14.535 17.1051 14.4998 16.9643 14.4615C17.4572 13.8688 17.8361 13.2113 18.1009 12.489C18.3654 11.7667 18.4977 11.0167 18.4977 10.239C18.4977 9.46107 18.3627 8.71388 18.0927 7.99742C17.8227 7.28117 17.4466 6.6218 16.9643 6.0193C17.1437 5.95513 17.3232 5.91346 17.5027 5.8943C17.6821 5.87492 17.8616 5.86523 18.0412 5.86523C19.2443 5.86523 20.2742 6.29367 21.1309 7.15055C21.9875 8.00721 22.4159 9.03711 22.4159 10.2402Z" fill="#007A33"/>
</svg>
