<svg width="28" height="28" viewBox="0 0 28 28" fill="none" xmlns="http://www.w3.org/2000/svg">
<path d="M11.3753 17.5446L18.7119 12.833L11.3753 8.12143V17.5446ZM9.91699 23.9163V21.583H5.02603C4.43667 21.583 3.93783 21.3788 3.52949 20.9705C3.12116 20.5622 2.91699 20.0633 2.91699 19.474V6.19205C2.91699 5.60269 3.12116 5.10384 3.52949 4.69551C3.93783 4.28717 4.43667 4.08301 5.02603 4.08301H22.9746C23.564 4.08301 24.0628 4.28717 24.4712 4.69551C24.8795 5.10384 25.0837 5.60269 25.0837 6.19205V19.474C25.0837 20.0633 24.8795 20.5622 24.4712 20.9705C24.0628 21.3788 23.564 21.583 22.9746 21.583H18.0837V23.9163H9.91699Z" fill="#007A33"/>
</svg>
