
<svg width="30" height="30" viewBox="0 0 30 30" fill="none" xmlns="http://www.w3.org/2000/svg">
<path d="M5.625 23.6056V21.7309H7.88469V12.4038C7.88469 10.7227 8.40354 9.23635 9.44125 7.94469C10.4787 6.65302 11.8108 5.82687 13.4375 5.46625V4.6875C13.4375 4.25354 13.5893 3.88458 13.8928 3.58063C14.1964 3.27688 14.5649 3.125 14.9984 3.125C15.4322 3.125 15.8013 3.27688 16.1056 3.58063C16.4102 3.88458 16.5625 4.25354 16.5625 4.6875V5.46625C18.1892 5.82687 19.5212 6.65302 20.5588 7.94469C21.5965 9.23635 22.1153 10.7227 22.1153 12.4038V21.7309H24.375V23.6056H5.625ZM14.9978 27.1153C14.3759 27.1153 13.8443 26.8941 13.4028 26.4516C12.9611 26.0091 12.7403 25.4771 12.7403 24.8556H17.2597C17.2597 25.4792 17.0382 26.0117 16.5953 26.4531C16.1524 26.8946 15.6199 27.1153 14.9978 27.1153Z" fill="#007A33"/>
</svg>
