
<svg width="30" height="30" viewBox="0 0 30 30" fill="none" xmlns="http://www.w3.org/2000/svg">
<path d="M5.38469 24.375C4.75323 24.375 4.21875 24.1562 3.78125 23.7188C3.34375 23.2812 3.125 22.7468 3.125 22.1153V7.88469C3.125 7.25323 3.34375 6.71875 3.78125 6.28125C4.21875 5.84375 4.75323 5.625 5.38469 5.625H24.6153C25.2468 5.625 25.7812 5.84375 26.2188 6.28125C26.6562 6.71875 26.875 7.25323 26.875 7.88469V22.1153C26.875 22.7468 26.6562 23.2812 26.2188 23.7188C25.7812 24.1562 25.2468 24.375 24.6153 24.375H5.38469ZM8.22125 18.6778H9.44219V11.3222H8.46156L6.34625 12.8366L7 13.7931L8.22125 12.9328V18.6778ZM12.0722 18.6778H16.8028V17.5722H13.7691L13.7306 17.4856C14.1363 17.109 14.4856 16.7688 14.7788 16.465C15.0721 16.1615 15.3381 15.8862 15.5769 15.6394C15.9358 15.2725 16.201 14.9075 16.3725 14.5444C16.544 14.1815 16.6297 13.7917 16.6297 13.375C16.6297 12.7869 16.4126 12.2977 15.9784 11.9075C15.5441 11.5173 14.9888 11.3222 14.3125 11.3222C13.8108 11.3222 13.3493 11.4664 12.9278 11.7547C12.5064 12.0432 12.2083 12.4215 12.0337 12.8894L13.1394 13.3412C13.2517 13.0704 13.4127 12.8569 13.6225 12.7006C13.8325 12.5444 14.0625 12.4662 14.3125 12.4662C14.649 12.4662 14.9222 12.5556 15.1322 12.7344C15.3422 12.9131 15.4472 13.1475 15.4472 13.4375C15.4472 13.6827 15.4015 13.9043 15.31 14.1022C15.2188 14.3001 15.0273 14.5529 14.7356 14.8606C14.4102 15.21 14.0387 15.5894 13.6213 15.9987C13.204 16.4083 12.6876 16.9168 12.0722 17.5241V18.6778ZM21.25 18.6778C21.96 18.6778 22.5342 18.4755 22.9725 18.0709C23.4106 17.6664 23.6297 17.1427 23.6297 16.5C23.6297 16.085 23.5196 15.7336 23.2994 15.4459C23.079 15.1582 22.7693 14.9471 22.3703 14.8125V14.75C22.6939 14.6233 22.943 14.4339 23.1178 14.1816C23.2924 13.9291 23.3797 13.6137 23.3797 13.2356C23.3797 12.6731 23.175 12.2135 22.7656 11.8569C22.3563 11.5004 21.8302 11.3222 21.1875 11.3222C20.6346 11.3222 20.1622 11.4732 19.7703 11.7753C19.3786 12.0774 19.1123 12.4071 18.9713 12.7644L20.0528 13.2162C20.1443 12.9744 20.2918 12.7825 20.4953 12.6406C20.6989 12.4988 20.9296 12.4278 21.1875 12.4278C21.4823 12.4278 21.7243 12.512 21.9134 12.6803C22.1026 12.8486 22.1972 13.0594 22.1972 13.3125C22.1972 13.6202 22.085 13.8654 21.8606 14.0481C21.6362 14.2308 21.3494 14.3222 21 14.3222H20.5097V15.4278H21.0625C21.5031 15.4278 21.8441 15.5172 22.0853 15.6959C22.3266 15.8747 22.4472 16.1219 22.4472 16.4375C22.4472 16.7323 22.3266 16.9887 22.0853 17.2069C21.8441 17.4248 21.5656 17.5337 21.25 17.5337C20.8958 17.5337 20.615 17.4556 20.4075 17.2994C20.2 17.1431 20.0193 16.8751 19.8653 16.4953L18.7838 16.9231C18.9456 17.4792 19.2425 17.9106 19.6744 18.2175C20.1063 18.5244 20.6315 18.6778 21.25 18.6778Z" fill="#007A33"/>
</svg>
