<svg width="30" height="30" viewBox="0 0 30 30" fill="none" xmlns="http://www.w3.org/2000/svg">
<path d="M15 13.75C15.6875 13.75 16.276 13.5052 16.7656 13.0156C17.2552 12.526 17.5 11.9375 17.5 11.25C17.5 10.5625 17.2552 9.97396 16.7656 9.48438C16.276 8.99479 15.6875 8.75 15 8.75C14.3125 8.75 13.724 8.99479 13.2344 9.48438C12.7448 9.97396 12.5 10.5625 12.5 11.25C12.5 11.9375 12.7448 12.526 13.2344 13.0156C13.724 13.5052 14.3125 13.75 15 13.75ZM9.61531 25.625V23.75H14.0625V19.4663C13.0017 19.2531 12.0642 18.8069 11.25 18.1275C10.4358 17.4479 9.85729 16.6009 9.51437 15.5866C8.07208 15.4151 6.855 14.8029 5.86312 13.75C4.87104 12.6971 4.375 11.4471 4.375 10V8.75C4.375 8.23875 4.55969 7.79844 4.92906 7.42906C5.29844 7.05969 5.73875 6.875 6.25 6.875H9.15875V4.375H20.8412V6.875H23.75C24.2612 6.875 24.7016 7.05969 25.0709 7.42906C25.4403 7.79844 25.625 8.23875 25.625 8.75V10C25.625 11.4471 25.129 12.6971 24.1369 13.75C23.145 14.8029 21.9279 15.4151 20.4856 15.5866C20.1427 16.6009 19.5642 17.4479 18.75 18.1275C17.9358 18.8069 16.9983 19.2531 15.9375 19.4663V23.75H20.3847V25.625H9.61531ZM9.15875 13.5722V8.75H6.25V10C6.25 10.8719 6.52323 11.6375 7.06969 12.2969C7.61615 12.9563 8.3125 13.3814 9.15875 13.5722ZM20.8412 13.5722C21.6875 13.3814 22.3839 12.9563 22.9303 12.2969C23.4768 11.6375 23.75 10.8719 23.75 10V8.75H20.8412V13.5722Z" fill="#007A33"/>
</svg>
