<svg width="35" height="35" viewBox="0 0 35 35" fill="none" xmlns="http://www.w3.org/2000/svg">
<path d="M8.53158 24.9378C9.77116 23.9899 11.1566 23.2425 12.6878 22.6956C14.2191 22.1488 15.8232 21.8753 17.5003 21.8753C19.1774 21.8753 20.7816 22.1488 22.3128 22.6956C23.8441 23.2425 25.2295 23.9899 26.4691 24.9378C27.3198 23.9413 27.9821 22.8111 28.4561 21.5472C28.93 20.2833 29.167 18.9344 29.167 17.5003C29.167 14.2677 28.0307 11.5151 25.7581 9.24251C23.4856 6.96994 20.733 5.83366 17.5003 5.83366C14.2677 5.83366 11.5151 6.96994 9.24251 9.24251C6.96994 11.5151 5.83366 14.2677 5.83366 17.5003C5.83366 18.9344 6.07064 20.2833 6.5446 21.5472C7.01855 22.8111 7.68088 23.9413 8.53158 24.9378ZM17.5003 18.9587C16.0663 18.9587 14.8571 18.4665 13.8727 17.4821C12.8883 16.4977 12.3962 15.2885 12.3962 13.8545C12.3962 12.4205 12.8883 11.2113 13.8727 10.2269C14.8571 9.24251 16.0663 8.75033 17.5003 8.75033C18.9344 8.75033 20.1436 9.24251 21.1279 10.2269C22.1123 11.2113 22.6045 12.4205 22.6045 13.8545C22.6045 15.2885 22.1123 16.4977 21.1279 17.4821C20.1436 18.4665 18.9344 18.9587 17.5003 18.9587ZM17.5003 32.0837C15.483 32.0837 13.5871 31.7008 11.8128 30.9352C10.0385 30.1696 8.49512 29.1305 7.18262 27.818C5.87012 26.5055 4.83105 24.9621 4.06543 23.1878C3.2998 21.4135 2.91699 19.5177 2.91699 17.5003C2.91699 15.483 3.2998 13.5871 4.06543 11.8128C4.83105 10.0385 5.87012 8.49512 7.18262 7.18262C8.49512 5.87012 10.0385 4.83105 11.8128 4.06543C13.5871 3.2998 15.483 2.91699 17.5003 2.91699C19.5177 2.91699 21.4135 3.2998 23.1878 4.06543C24.9621 4.83105 26.5055 5.87012 27.818 7.18262C29.1305 8.49512 30.1696 10.0385 30.9352 11.8128C31.7008 13.5871 32.0837 15.483 32.0837 17.5003C32.0837 19.5177 31.7008 21.4135 30.9352 23.1878C30.1696 24.9621 29.1305 26.5055 27.818 27.818C26.5055 29.1305 24.9621 30.1696 23.1878 30.9352C21.4135 31.7008 19.5177 32.0837 17.5003 32.0837Z" fill="#007A33"/>
</svg>
