<svg width="30" height="30" viewBox="0 0 30 30" fill="none" xmlns="http://www.w3.org/2000/svg">
<path d="M15.0022 26.875C13.3597 26.875 11.8158 26.5633 10.3706 25.94C8.92542 25.3167 7.66833 24.4707 6.59937 23.4022C5.53042 22.3336 4.68406 21.0771 4.06031 19.6325C3.43677 18.1879 3.125 16.6445 3.125 15.0022C3.125 13.3597 3.43667 11.8158 4.06 10.3706C4.68333 8.92542 5.52927 7.66833 6.59781 6.59937C7.66635 5.53042 8.92292 4.68406 10.3675 4.06031C11.8121 3.43677 13.3555 3.125 14.9978 3.125C16.6403 3.125 18.1842 3.43667 19.6294 4.06C21.0746 4.68333 22.3317 5.52927 23.4006 6.59781C24.4696 7.66635 25.3159 8.92292 25.9397 10.3675C26.5632 11.8121 26.875 13.3555 26.875 14.9978C26.875 16.6403 26.5633 18.1842 25.94 19.6294C25.3167 21.0746 24.4707 22.3317 23.4022 23.4006C22.3336 24.4696 21.0771 25.3159 19.6325 25.9397C18.1879 26.5632 16.6445 26.875 15.0022 26.875ZM11.375 24.3125L13.2116 20.1297C12.4314 19.8543 11.7579 19.4273 11.1912 18.8488C10.6246 18.27 10.1923 17.5913 9.89437 16.8125L5.66344 18.5625C6.15073 19.8958 6.89437 21.0625 7.89437 22.0625C8.89437 23.0625 10.0546 23.8125 11.375 24.3125ZM9.89437 13.1875C10.1765 12.4087 10.6031 11.7353 11.1744 11.1672C11.7456 10.5991 12.4167 10.1748 13.1875 9.89437L11.4375 5.66344C10.0963 6.17156 8.92562 6.92562 7.92562 7.92562C6.92562 8.92562 6.17156 10.0963 5.66344 11.4375L9.89437 13.1875ZM14.9972 18.5578C15.9847 18.5578 16.825 18.2122 17.5181 17.5209C18.2113 16.8297 18.5578 15.9903 18.5578 15.0028C18.5578 14.0153 18.2122 13.175 17.5209 12.4819C16.8297 11.7887 15.9903 11.4422 15.0028 11.4422C14.0153 11.4422 13.175 11.7878 12.4819 12.4791C11.7888 13.1703 11.4422 14.0097 11.4422 14.9972C11.4422 15.9847 11.7878 16.825 12.4791 17.5181C13.1703 18.2112 14.0097 18.5578 14.9972 18.5578ZM18.625 24.3125C19.9375 23.8125 21.0885 23.0677 22.0781 22.0781C23.0677 21.0885 23.8125 19.9375 24.3125 18.625L20.1297 16.7884C19.8653 17.5593 19.4462 18.2283 18.8725 18.7956C18.2987 19.3629 17.6329 19.7996 16.875 20.1056L18.625 24.3125ZM20.1056 13.125L24.3125 11.375C23.8125 10.0625 23.0677 8.91146 22.0781 7.92188C21.0885 6.93229 19.9375 6.1875 18.625 5.6875L16.875 9.93281C17.6169 10.2211 18.2643 10.641 18.8172 11.1925C19.3701 11.7437 19.7996 12.3879 20.1056 13.125Z" fill="#007A33"/>
</svg>
