<svg width="30" height="30" viewBox="0 0 30 30" fill="none" xmlns="http://www.w3.org/2000/svg">
<path d="M10.3125 22.1875H19.6875V20.3125H10.3125V22.1875ZM10.3125 17.1875H19.6875V15.3125H10.3125V17.1875ZM7.88469 26.875C7.25323 26.875 6.71875 26.6562 6.28125 26.2188C5.84375 25.7812 5.625 25.2468 5.625 24.6153V5.38469C5.625 4.75323 5.84375 4.21875 6.28125 3.78125C6.71875 3.34375 7.25323 3.125 7.88469 3.125H17.8125L24.375 9.6875V24.6153C24.375 25.2468 24.1562 25.7812 23.7188 26.2188C23.2812 26.6562 22.7468 26.875 22.1153 26.875H7.88469ZM16.875 10.625H22.5L16.875 5V10.625Z" fill="#007A33"/>
</svg>
