<svg width="30" height="30" viewBox="0 0 30 30" fill="none" xmlns="http://www.w3.org/2000/svg">
<path d="M7.5 26.8749C6.62667 26.8749 5.8875 26.5724 5.2825 25.9674C4.6775 25.3624 4.375 24.6251 4.375 23.7555V20.6249H8.125V3.36523L9.85594 4.85586L11.6106 3.36523L13.3653 4.85586L15.1203 3.36523L16.875 4.85586L18.6297 3.36523L20.3847 4.85586L22.1394 3.36523L23.8941 4.85586L25.625 3.36523V23.7499C25.625 24.6233 25.3225 25.3624 24.7175 25.9674C24.1125 26.5724 23.3733 26.8749 22.5 26.8749H7.5ZM22.5 24.9999C22.8542 24.9999 23.151 24.8801 23.3906 24.6405C23.6302 24.401 23.75 24.1041 23.75 23.7499V6.24992H10V20.6249H21.25V23.7499C21.25 24.1041 21.3698 24.401 21.6094 24.6405C21.849 24.8801 22.1458 24.9999 22.5 24.9999ZM11.4903 10.9374V9.06242H18.5816V10.9374H11.4903ZM11.4903 14.6874V12.8124H18.5816V14.6874H11.4903ZM21.1778 11.1055C20.8718 11.1055 20.6109 10.9978 20.3953 10.7824C20.1799 10.5668 20.0722 10.306 20.0722 9.99992C20.0722 9.69388 20.1799 9.43305 20.3953 9.21742C20.6109 9.00201 20.8718 8.8943 21.1778 8.8943C21.4839 8.8943 21.7447 9.00201 21.9603 9.21742C22.1759 9.43305 22.2838 9.69388 22.2838 9.99992C22.2838 10.306 22.1759 10.5668 21.9603 10.7824C21.7447 10.9978 21.4839 11.1055 21.1778 11.1055ZM21.1778 14.8555C20.8718 14.8555 20.6109 14.7478 20.3953 14.5324C20.1799 14.3168 20.0722 14.056 20.0722 13.7499C20.0722 13.4439 20.1799 13.183 20.3953 12.9674C20.6109 12.752 20.8718 12.6443 21.1778 12.6443C21.4839 12.6443 21.7447 12.752 21.9603 12.9674C22.1759 13.183 22.2838 13.4439 22.2838 13.7499C22.2838 14.056 22.1759 14.3168 21.9603 14.5324C21.7447 14.7478 21.4839 14.8555 21.1778 14.8555Z" fill="#007A33"/>
</svg>
