<svg width="30" height="30" viewBox="0 0 30 30" fill="none" xmlns="http://www.w3.org/2000/svg">
<path d="M6.63469 25.625C6.00323 25.625 5.46875 25.4062 5.03125 24.9688C4.59375 24.5312 4.375 23.9968 4.375 23.3653V6.63469C4.375 6.00323 4.59375 5.46875 5.03125 5.03125C5.46875 4.59375 6.00323 4.375 6.63469 4.375H23.3653C23.9968 4.375 24.5312 4.59375 24.9688 5.03125C25.4062 5.46875 25.625 6.00323 25.625 6.63469V7.5H16.6347C15.3959 7.5 14.3972 7.87948 13.6384 8.63844C12.8795 9.39719 12.5 10.3959 12.5 11.6347V18.3653C12.5 19.6041 12.8795 20.6028 13.6384 21.3616C14.3972 22.1205 15.3959 22.5 16.6347 22.5H25.625V23.3653C25.625 23.9968 25.4062 24.5312 24.9688 24.9688C24.5312 25.4062 23.9968 25.625 23.3653 25.625H6.63469ZM16.6347 20.625C16.0032 20.625 15.4688 20.4062 15.0312 19.9688C14.5938 19.5312 14.375 18.9968 14.375 18.3653V11.6347C14.375 11.0032 14.5938 10.4688 15.0312 10.0312C15.4688 9.59375 16.0032 9.375 16.6347 9.375H24.6153C25.2468 9.375 25.7812 9.59375 26.2188 10.0312C26.6562 10.4688 26.875 11.0032 26.875 11.6347V18.3653C26.875 18.9968 26.6562 19.5312 26.2188 19.9688C25.7812 20.4062 25.2468 20.625 24.6153 20.625H16.6347ZM20 16.875C20.5417 16.875 20.9896 16.6979 21.3438 16.3438C21.6979 15.9896 21.875 15.5417 21.875 15C21.875 14.4583 21.6979 14.0104 21.3438 13.6562C20.9896 13.3021 20.5417 13.125 20 13.125C19.4583 13.125 19.0104 13.3021 18.6562 13.6562C18.3021 14.0104 18.125 14.4583 18.125 15C18.125 15.5417 18.3021 15.9896 18.6562 16.3438C19.0104 16.6979 19.4583 16.875 20 16.875Z" fill="#007A33"/>
</svg>
