<svg width="25" height="25" viewBox="0 0 25 25" fill="none" xmlns="http://www.w3.org/2000/svg">
<path d="M9.17708 2.08398L5.40625 5.86523" stroke="#9DB2CE" stroke-width="1.5" stroke-miterlimit="10" stroke-linecap="round" stroke-linejoin="round"/>
<path d="M15.8228 2.08398L19.5936 5.86523" stroke="#9DB2CE" stroke-width="1.5" stroke-miterlimit="10" stroke-linecap="round" stroke-linejoin="round"/>
<path d="M2.0835 8.17708C2.0835 6.25 3.11475 6.09375 4.396 6.09375H20.6043C21.8856 6.09375 22.9168 6.25 22.9168 8.17708C22.9168 10.4167 21.8856 10.2604 20.6043 10.2604H4.396C3.11475 10.2604 2.0835 10.4167 2.0835 8.17708Z" stroke="#9DB2CE" stroke-width="1.5"/>
<path d="M10.1665 14.584V18.2819" stroke="#9DB2CE" stroke-width="1.5" stroke-linecap="round"/>
<path d="M14.958 14.584V18.2819" stroke="#9DB2CE" stroke-width="1.5" stroke-linecap="round"/>
<path d="M3.646 10.416L5.11475 19.416C5.44808 21.4368 6.25016 22.916 9.22933 22.916H15.5106C18.7502 22.916 19.2293 21.4993 19.6043 19.541L21.3543 10.416" stroke="#9DB2CE" stroke-width="1.5" stroke-linecap="round"/>
</svg>
