<svg width="23" height="23" viewBox="0 0 23 23" fill="none" xmlns="http://www.w3.org/2000/svg">
<path d="M11.5002 12.2181C8.46225 12.2181 5.98975 9.7456 5.98975 6.70768C5.98975 3.66977 8.46225 1.19727 11.5002 1.19727C14.5381 1.19727 17.0106 3.66977 17.0106 6.70768C17.0106 9.7456 14.5381 12.2181 11.5002 12.2181ZM11.5002 2.63477C9.25766 2.63477 7.42725 4.46518 7.42725 6.70768C7.42725 8.95018 9.25766 10.7806 11.5002 10.7806C13.7427 10.7806 15.5731 8.95018 15.5731 6.70768C15.5731 4.46518 13.7427 2.63477 11.5002 2.63477Z" fill="#9DB2CE"/>
<path d="M19.7322 21.8021C19.3393 21.8021 19.0135 21.4762 19.0135 21.0833C19.0135 17.7771 15.6401 15.0938 11.5001 15.0938C7.36015 15.0938 3.98682 17.7771 3.98682 21.0833C3.98682 21.4762 3.66098 21.8021 3.26807 21.8021C2.87515 21.8021 2.54932 21.4762 2.54932 21.0833C2.54932 16.9913 6.56473 13.6562 11.5001 13.6562C16.4356 13.6562 20.451 16.9913 20.451 21.0833C20.451 21.4762 20.1251 21.8021 19.7322 21.8021Z" fill="#9DB2CE"/>
</svg>
