<svg width="25" height="25" viewBox="0 0 25 25" fill="none" xmlns="http://www.w3.org/2000/svg">
<path d="M19.5312 3.125H5.46875C2.88281 3.125 0.78125 5.22656 0.78125 7.8125V17.1875C0.78125 19.7734 2.88281 21.875 5.46875 21.875H19.5312C22.1172 21.875 24.2188 19.7734 24.2188 17.1875V15.625V9.375V7.8125C24.2188 5.22656 22.1172 3.125 19.5312 3.125ZM19.5312 20.3125H5.46875C3.74609 20.3125 2.34375 18.9102 2.34375 17.1875V7.8125C2.34375 6.08984 3.74609 4.6875 5.46875 4.6875H19.5312C21.2539 4.6875 22.6562 6.08984 22.6562 7.8125V8.59375H15.625C13.4727 8.59375 11.7188 10.3477 11.7188 12.5C11.7188 14.6523 13.4727 16.4062 15.625 16.4062H22.6562V17.1875C22.6562 18.9102 21.2539 20.3125 19.5312 20.3125ZM22.6562 14.8438H15.625C14.332 14.8438 13.2812 13.793 13.2812 12.5C13.2812 11.207 14.332 10.1562 15.625 10.1562H22.6562V14.8438Z" fill="#9DB2CE"/>
<path d="M13.6719 12.5C13.6719 13.5781 14.5469 14.4531 15.625 14.4531C16.7031 14.4531 17.5781 13.5781 17.5781 12.5C17.5781 11.4219 16.7031 10.5469 15.625 10.5469C14.5469 10.5469 13.6719 11.4219 13.6719 12.5ZM16.0156 12.5C16.0156 12.7148 15.8398 12.8906 15.625 12.8906C15.4102 12.8906 15.2344 12.7148 15.2344 12.5C15.2344 12.2852 15.4102 12.1094 15.625 12.1094C15.8398 12.1094 16.0156 12.2852 16.0156 12.5Z" fill="#9DB2CE"/>
</svg>
